<svg width="64" height="64" viewBox="0 0 64 64" fill="none" xmlns="http://www.w3.org/2000/svg">
<rect width="64" height="64" rx="8" fill="#8FBA49"/>
<path d="M54.2535 44.2776C53.3151 44.9032 52.0247 45.4376 50.3825 45.8808C48.7663 46.3239 47.2545 46.5455 45.8468 46.5455C43.0055 46.5455 40.5031 45.9329 38.3395 44.7077C36.1759 43.4826 34.4946 41.8143 33.2955 39.7029C32.1225 37.5914 31.536 35.2323 31.536 32.6256C31.536 29.8625 32.1746 27.3861 33.4519 25.1965C34.7292 22.9808 36.4496 21.2604 38.6132 20.0352C40.7768 18.784 43.1489 18.1584 45.7295 18.1584C48.5187 18.1584 51.0603 18.8361 53.3542 20.1916L52.6504 21.9121C51.7119 21.3646 50.6432 20.9215 49.4441 20.5826C48.245 20.2438 47.072 20.0743 45.925 20.0743C43.6051 20.0743 41.4936 20.6217 39.5907 21.7165C37.6878 22.7853 36.189 24.2711 35.0942 26.174C34.0254 28.0509 33.491 30.1623 33.491 32.5083C33.491 34.8022 33.9993 36.8746 35.0159 38.7253C36.0586 40.5761 37.5054 42.0359 39.3561 43.1046C41.233 44.1473 43.3835 44.6686 45.8077 44.6686C46.9286 44.6686 48.0886 44.5383 49.2877 44.2776C50.4868 43.9909 51.5034 43.6129 52.3375 43.1437V35.4409H46.0814V33.6032H54.2535V44.2776Z" fill="white"/>
<path d="M17.4467 17.4545C20.9658 17.4545 23.6898 18.3278 25.6188 20.0743C27.5477 21.7947 28.5122 24.1538 28.5122 27.1515C28.5122 28.8719 28.1733 30.4881 27.4956 32C26.8439 33.4858 25.7621 34.711 24.2502 35.6754C22.7644 36.6399 20.8355 37.1222 18.4633 37.1222H14.3969V46.2326H8.72728V17.4545H17.4467ZM18.4242 31.609C19.493 31.609 20.3532 31.3744 21.0049 30.9052C21.6566 30.4099 22.1258 29.8364 22.4125 29.1847C22.6993 28.5331 22.8426 27.9074 22.8426 27.3079C22.8426 26.2913 22.5428 25.3138 21.9433 24.3753C21.3438 23.4109 20.1838 22.9286 18.4633 22.9286H14.3969V31.609H18.4242Z" fill="white"/>
</svg>
